<svg xmlns="http://www.w3.org/2000/svg" viewBox="0 0 64 65" id="color"><path fill="none" stroke="#f16723" stroke-linecap="round" stroke-linejoin="round" stroke-miterlimit="10" d="M59.2 39.8h1.7M60 40.7v-1.8"></path><path fill="none" stroke="#4d9ad4" stroke-linecap="round" stroke-linejoin="round" stroke-miterlimit="10" d="M25.2 6.2H27M26.1 7V5.3"></path><circle cx="4.3" cy="44" r=".8" fill="none" stroke="#f16723" stroke-linecap="round" stroke-linejoin="round" stroke-miterlimit="10"></circle><circle cx="58.4" cy="58.8" r=".3" fill="#231f20"></circle><circle cx="5.4" cy="40.5" r=".3" fill="#231f20"></circle><circle cx="9.1" cy="9.3" r=".3" fill="#231f20"></circle><circle cx="55.3" cy="20.3" r=".3" fill="#231f20"></circle><circle cx="53.5" cy="20.7" r=".4" fill="#231f20"></circle><circle cx="43.6" cy="13.6" r="1" fill="none" stroke="#fbd108" stroke-linecap="round" stroke-linejoin="round" stroke-miterlimit="10"></circle><path fill="#fff" d="M8.3 49.6c0-5.5 4.4-9.9 9.9-9.9h30.1c5.5 0 9.9 4.4 9.9 9.9s-4.4 9.9-9.9 9.9H18.2c-5.5 0-9.9-4.4-9.9-9.9z"></path><path fill="#5bb947" d="M8.5 51.3v-1.1c0-4.5 3.7-8.2 8.2-8.2h33.5c4.5 0 8.2 3.7 8.2 8.2 0 5.2-4.2 9.3-9.3 9.3H16.7c-4.5 0-8.2-3.7-8.2-8.2z"></path><path fill="#80c244" d="M8.5 49.2c0-4 3.2-7.2 7.2-7.2h35.4c4 0 7.2 3.2 7.2 7.2s-3.2 7.2-7.2 7.2H15.8c-4 0-7.3-3.2-7.3-7.2z"></path><path fill="#fff" d="M25 39.7h-6.7c-5.5 0-9.9 4.4-9.9 9.9s4.4 9.9 9.9 9.9H25V39.7z"></path><path fill="#e7d0a8" d="M25 42h-7.6c-4.8 0-8.8 3.9-8.8 8.8 0 4.8 3.9 8.8 8.8 8.8H25V42z"></path><path fill="#ffe4b8" d="M25 42h-9.1c-4 0-7.2 3.2-7.2 7.2s3.2 7.2 7.2 7.2H25V42z"></path><path fill="none" stroke="#231f20" stroke-linecap="round" stroke-miterlimit="10" stroke-width="1.5" d="M8.3 49.6c0-5.5 4.4-9.9 9.9-9.9h30.1c5.5 0 9.9 4.4 9.9 9.9s-4.4 9.9-9.9 9.9H18.2c-5.5 0-9.9-4.4-9.9-9.9zM25 59.5V41.3"></path><circle cx="17.6" cy="49.6" r="2.4" fill="#fff"></circle><circle cx="17.6" cy="49.6" r="2.4" fill="none" stroke="#231f20" stroke-linecap="round" stroke-miterlimit="10" stroke-width="1.5"></circle><path fill="none" stroke="#fff" stroke-linecap="round" stroke-miterlimit="10" stroke-width="1.5" d="M55 47.2c0-1.7-1.4-3.1-3.1-3.1M50.4 44.1h-.7M32.2 44.1h-4"></path><path fill="#fff" d="M9 53c-2.1-5 .4-10.8 5.5-12.9l27.9-11.3c5.1-2.1 10.9.4 12.9 5.5 2.1 5.1-.4 10.9-5.5 12.9L21.9 58.5C16.8 60.6 11 58.1 9 53z"></path><path fill="#ef5224" d="m9.9 54.6-.5-1.2a8.1 8.1 0 0 1 4.5-10.6l31.2-12.6c4.2-1.7 8.9.3 10.6 4.5 1.9 4.8-.4 10.3-5.2 12.3l-30 12.1a8.1 8.1 0 0 1-10.6-4.5z"></path><path fill="#f16723" d="M9.1 52.6c-1.5-3.7.3-7.9 4-9.4L46 29.9c3.7-1.5 7.9.3 9.4 4s-.3 7.9-4 9.4L18.5 56.6c-3.7 1.5-7.9-.3-9.4-4z"></path><path fill="#fff" d="m20.8 37.6-6.2 2.5c-5.1 2-7.5 7.8-5.5 12.9 2.1 5.1 7.8 7.5 12.9 5.5l6.2-2.5-7.4-18.4z"></path><path fill="#e7d0a8" d="m21.7 39.7-7 2.8c-4.6 1.9-6.7 7-4.9 11.5 1.8 4.5 6.9 6.7 11.4 4.8l7-2.8-6.5-16.3z"></path><path fill="#ffe4b8" d="m21.7 39.7-8.5 3.4c-3.7 1.5-5.5 5.7-4 9.4s5.7 5.5 9.4 4l8.5-3.4-5.4-13.4z"></path><path fill="none" stroke="#231f20" stroke-linecap="round" stroke-miterlimit="10" stroke-width="1.5" d="M9 53c-2.1-5 .4-10.8 5.5-12.9l27.9-11.3c5.1-2.1 10.9.4 12.9 5.5 2.1 5.1-.4 10.9-5.5 12.9L21.9 58.5C16.8 60.6 11 58.1 9 53zM28.2 56l-6.8-16.9"></path><circle cx="17.6" cy="49.6" r="2.4" fill="#fff" transform="rotate(-21.998 17.613 49.552)"></circle><circle cx="17.6" cy="49.6" r="2.4" fill="none" stroke="#231f20" stroke-linecap="round" stroke-miterlimit="10" stroke-width="1.5" transform="rotate(-21.998 17.613 49.552)"></circle><path fill="none" stroke="#fff" stroke-linecap="round" stroke-miterlimit="10" stroke-width="1.5" d="M51.5 33.3c-.6-1.6-2.4-2.3-4-1.7M46 32.2l-.6.3M29.2 39l-3.8 1.6"></path><path fill="#fff" d="M11.2 56.3c-3.9-3.9-3.9-10.2 0-14L32.4 21c3.9-3.9 10.2-3.9 14 0 3.9 3.9 3.9 10.2 0 14L25.2 56.3c-3.9 3.9-10.1 3.9-14 0z"></path><path fill="#f9ae19" d="m12.5 57.3-.7-.7c-3.2-3.2-3.2-8.4 0-11.7l23.6-23.6c3.2-3.2 8.4-3.2 11.7 0 3.6 3.6 3.6 9.5 0 13.1L24.2 57.3c-3.2 3.2-8.4 3.2-11.7 0z"></path><path fill="#fbd108" d="M11.1 55.8c-2.8-2.8-2.8-7.4 0-10.2l25.1-25.1c2.8-2.8 7.4-2.8 10.2 0 2.8 2.8 2.8 7.4 0 10.2L21.3 55.8c-2.8 2.9-7.4 2.9-10.2 0z"></path><path fill="#fff" d="m16 37.4-4.7 4.7c-3.9 3.9-3.9 10.2 0 14 3.9 3.9 10.2 3.9 14 0l4.7-4.7-14-14z"></path><path fill="#e7d0a8" d="m17.6 39.1-5.4 5.4c-3.4 3.4-3.4 9 0 12.4 3.4 3.4 9 3.4 12.4 0l5.4-5.4-12.4-12.4z"></path><path fill="#ffe4b8" d="m17.6 39.1-6.4 6.4c-2.8 2.8-2.8 7.4 0 10.2 2.8 2.8 7.4 2.8 10.2 0l6.4-6.4-10.2-10.2z"></path><path fill="none" stroke="#231f20" stroke-linecap="round" stroke-miterlimit="10" stroke-width="1.5" d="M11.2 56.3c-3.9-3.9-3.9-10.2 0-14L32.4 21c3.9-3.9 10.2-3.9 14 0 3.9 3.9 3.9 10.2 0 14L25.2 56.3c-3.9 3.9-10.1 3.9-14 0zM30 51.5 17.2 38.6"></path><circle cx="17.8" cy="49.7" r="2.4" fill="#fff" transform="rotate(-45.001 17.753 49.717)"></circle><circle cx="17.8" cy="49.7" r="2.4" fill="none" stroke="#231f20" stroke-linecap="round" stroke-miterlimit="10" stroke-width="1.5" transform="rotate(-45.001 17.753 49.717)"></circle><path fill="none" stroke="#fff" stroke-linecap="round" stroke-miterlimit="10" stroke-width="1.5" d="M42.6 21.5c-1.2-1.2-3.1-1.2-4.3 0M37.1 22.7l-.5.5M24.3 35.5l-2.9 2.9"></path><path fill="#fff" d="M14.4 58.6c-5.1-2.1-7.5-7.9-5.4-13l11.5-27.8c2.1-5.1 7.9-7.5 13-5.4 5.1 2.1 7.5 7.9 5.4 13L27.4 53.3c-2.1 5-7.9 7.4-13 5.3z"></path><path fill="#ed3c7a" d="m16 59-.8-.3c-4.2-1.8-6.3-6.6-4.5-10.9l12.7-30.7c1.8-4.2 6.6-6.3 10.9-4.5 4.7 1.9 6.9 7.3 5 12L26.8 54.5c-1.7 4.2-6.6 6.3-10.8 4.5z"></path><path fill="#ef5e87" d="M14.1 58.2c-3.7-1.5-5.4-5.8-3.9-9.5L23.8 16c1.5-3.7 5.8-5.4 9.5-3.9 3.7 1.5 5.4 5.8 3.9 9.5L23.6 54.3c-1.5 3.7-5.8 5.5-9.5 3.9z"></path><path fill="#fff" d="M11.6 39.4 9 45.6c-2.1 5.1.3 10.9 5.4 13 5.1 2.1 10.9-.3 13-5.4L30 47l-18.4-7.6z"></path><path fill="#e7d0a8" d="m13.8 40.2-2.9 7c-1.9 4.5.3 9.6 4.7 11.5 4.5 1.9 9.6-.3 11.5-4.7l2.9-7-16.2-6.8z"></path><path fill="#ffe4b8" d="m13.8 40.2-3.5 8.4c-1.5 3.7.2 7.9 3.9 9.5 3.7 1.5 7.9-.2 9.5-3.9l3.5-8.4-13.4-5.6z"></path><path fill="none" stroke="#231f20" stroke-linecap="round" stroke-miterlimit="10" stroke-width="1.5" d="M14.4 58.6c-5.1-2.1-7.5-7.9-5.4-13l11.5-27.8c2.1-5.1 7.9-7.5 13-5.4 5.1 2.1 7.5 7.9 5.4 13L27.4 53.3c-2.1 5-7.9 7.4-13 5.3zM30 47l-16.8-7"></path><circle cx="18" cy="50" r="2.4" fill="#fff" transform="rotate(-67.487 17.956 50.025)"></circle><circle cx="18" cy="50" r="2.4" fill="none" stroke="#231f20" stroke-linecap="round" stroke-miterlimit="10" stroke-width="1.5" transform="rotate(-67.487 17.956 50.025)"></circle><path fill="none" stroke="#fff" stroke-linecap="round" stroke-miterlimit="10" stroke-width="1.5" d="M30.1 14.5c-1.6-.6-3.3.1-4 1.7M25.5 17.6l-.3.7M18.6 34.4 17 38.2"></path><path fill="#fff" d="M18.2 59.5c-5.5 0-9.9-4.4-9.9-9.9V19.5c0-5.5 4.4-9.9 9.9-9.9s9.9 4.4 9.9 9.9v30.1c0 5.5-4.4 9.9-9.9 9.9z"></path><path fill="#3768a4" d="M19.4 59.2c-4.9 0-8.8-3.9-8.8-8.7V18.1c0-4.8 3.9-8.7 8.7-8.7 4.9 0 8.8 3.9 8.8 8.8v32.4c0 4.7-3.9 8.6-8.7 8.6z"></path><path fill="#4d9ad4" d="M17.8 59.2c-4 0-7.2-3.2-7.2-7.2V16.6c0-4 3.2-7.2 7.2-7.2s7.2 3.2 7.2 7.2V52c.1 4-3.2 7.2-7.2 7.2z"></path><path fill="#fff" d="M8.3 42.8v6.7c0 5.5 4.4 9.9 9.9 9.9s9.9-4.4 9.9-9.9v-6.7H8.3z"></path><path fill="#e7d0a8" d="M10.6 42.8v7.6c0 4.8 3.9 8.8 8.8 8.8 4.8 0 8.8-3.9 8.8-8.8v-7.6H10.6z"></path><path fill="#ffe4b8" d="M10.6 42.8v9.1c0 4 3.2 7.2 7.2 7.2s7.2-3.2 7.2-7.2v-9.1H10.6z"></path><path fill="none" stroke="#231f20" stroke-linecap="round" stroke-miterlimit="10" stroke-width="1.5" d="M28.1 27.1v22.5c0 5.5-4.4 9.9-9.9 9.9s-9.9-4.4-9.9-9.9V30.4M28.1 23.9v1.6M8.3 28.6v-9.1c0-5.5 4.4-9.9 9.9-9.9s9.9 4.4 9.9 9.9v2.8M28.1 42.8H9.9"></path><circle cx="18.2" cy="50.2" r="2.4" fill="#fff"></circle><circle cx="18.2" cy="50.2" r="2.4" fill="none" stroke="#231f20" stroke-linecap="round" stroke-miterlimit="10" stroke-width="1.5"></circle><path fill="none" stroke="#fff" stroke-linecap="round" stroke-miterlimit="10" stroke-width="1.5" d="M15.8 12.7c-1.7 0-3.1 1.4-3.1 3.1M12.8 17.4v.7M12.8 35.5v4.1"></path></svg>